<svg id="svg" version="1.1" width="500" height="500" xmlns="http://www.w3.org/2000/svg"><path d="M0.000 250.000 L 0.000 500.000 250.000 500.000 L 500.000 500.000 500.000 250.000 L 500.000 0.000 250.000 0.000 L 0.000 0.000 0.000 250.000 M232.000 82.500 C 233.292 83.875,234.124 85.000,233.849 85.000 C 233.574 85.000,232.292 83.875,231.000 82.500 C 229.708 81.125,228.876 80.000,229.151 80.000 C 229.426 80.000,230.708 81.125,232.000 82.500 M131.768 85.715 C 130.265 85.943,127.565 85.947,125.768 85.725 C 123.971 85.502,125.200 85.315,128.500 85.310 C 131.800 85.304,133.271 85.486,131.768 85.715 M264.292 85.739 C 260.877 85.934,255.027 85.935,251.292 85.742 C 247.556 85.550,250.350 85.390,257.500 85.389 C 264.650 85.387,267.706 85.545,264.292 85.739 M299.750 85.716 C 298.238 85.945,295.762 85.945,294.250 85.716 C 292.738 85.487,293.975 85.300,297.000 85.300 C 300.025 85.300,301.262 85.487,299.750 85.716 M354.191 85.748 C 346.871 85.919,335.171 85.918,328.191 85.747 C 321.211 85.575,327.200 85.435,341.500 85.436 C 355.800 85.436,361.511 85.577,354.191 85.748 M242.174 86.871 C 241.136 87.529,241.389 88.341,243.337 90.606 L 245.826 93.500 305.163 93.785 C 368.784 94.090,368.923 94.101,376.339 99.280 C 380.286 102.037,384.792 108.532,386.137 113.404 C 386.939 116.312,387.209 139.103,387.066 192.000 C 386.879 261.091,386.734 266.790,385.079 270.500 C 382.855 275.482,378.941 279.414,372.585 283.049 L 367.670 285.859 314.585 286.131 C 285.388 286.281,230.675 286.351,193.000 286.287 C 126.074 286.173,124.372 286.122,118.921 284.077 C 111.435 281.269,105.713 276.152,102.311 269.224 L 99.500 263.500 99.225 190.593 C 98.990 128.352,99.167 116.941,100.440 112.593 C 103.704 101.445,113.278 94.997,127.750 94.202 L 136.000 93.749 136.000 97.759 L 136.000 101.770 130.251 102.488 C 123.603 103.319,120.724 104.627,116.364 108.799 C 109.960 114.926,109.922 115.365,110.226 179.160 L 110.500 236.659 113.536 241.579 C 115.553 244.848,118.339 247.560,121.836 249.657 C 126.523 252.468,128.276 252.896,137.800 253.555 C 154.755 254.729,359.108 253.289,362.584 251.972 C 366.272 250.574,369.369 247.707,373.356 242.000 L 376.500 237.500 376.781 179.722 C 376.972 140.476,376.714 120.653,375.977 117.916 C 375.381 115.700,373.263 112.083,371.271 109.879 C 364.264 102.122,367.532 102.532,310.324 102.226 C 276.884 102.047,258.933 102.300,258.527 102.956 C 257.946 103.896,258.553 105.422,260.929 109.000 C 261.785 110.288,268.932 110.571,311.578 111.000 L 361.231 111.500 364.519 115.305 L 367.807 119.110 368.185 175.805 C 368.393 206.987,368.196 233.943,367.747 235.706 C 367.284 237.522,365.329 240.231,363.237 241.956 L 359.544 245.000 244.259 245.000 C 122.510 245.000,126.986 245.166,122.672 240.500 C 117.950 235.392,117.935 235.170,118.226 175.393 C 118.495 120.142,118.537 119.095,120.588 116.323 C 123.155 112.852,129.298 109.782,132.853 110.194 L 135.500 110.500 136.000 163.500 C 136.461 212.382,136.645 216.831,138.365 220.766 C 140.646 225.984,147.554 232.256,152.691 233.773 C 157.857 235.300,244.282 234.600,248.532 232.997 C 252.722 231.416,257.766 226.307,260.589 220.783 L 263.000 216.066 263.000 164.494 L 263.000 112.921 249.934 100.247 C 239.143 89.779,237.184 87.448,238.684 86.857 C 239.683 86.463,241.175 86.116,242.000 86.086 C 243.192 86.042,243.228 86.203,242.174 86.871 M380.000 90.570 C 380.000 90.845,379.100 90.589,378.000 90.000 C 376.900 89.411,376.000 88.705,376.000 88.430 C 376.000 88.155,376.900 88.411,378.000 89.000 C 379.100 89.589,380.000 90.295,380.000 90.570 M220.000 101.566 C 220.000 121.323,220.869 122.171,240.250 121.304 L 254.000 120.689 254.000 168.476 C 254.000 215.146,253.951 216.343,251.918 219.633 C 247.802 226.293,250.193 226.000,199.926 226.000 L 154.297 226.000 151.057 222.904 C 144.821 216.945,145.000 219.067,145.000 151.032 L 145.000 89.000 182.500 89.000 L 220.000 89.000 220.000 101.566 M384.128 93.750 C 385.371 95.336,385.336 95.371,383.750 94.128 C 382.084 92.821,381.555 92.000,382.378 92.000 C 382.585 92.000,383.373 92.787,384.128 93.750 M240.000 103.080 L 249.500 112.061 239.500 111.780 L 229.500 111.500 229.431 102.750 C 229.393 97.938,229.618 94.022,229.931 94.050 C 230.244 94.077,234.775 98.141,240.000 103.080 M156.667 132.667 C 155.394 133.940,156.009 137.789,157.582 138.393 C 158.452 138.727,164.061 139.000,170.047 139.000 C 180.019 139.000,181.022 138.827,182.034 136.936 C 184.205 132.880,181.889 132.000,169.044 132.000 C 162.603 132.000,157.033 132.300,156.667 132.667 M191.667 132.667 C 190.337 133.996,191.045 136.953,192.934 137.965 C 194.110 138.594,204.064 139.000,218.312 139.000 C 243.376 139.000,244.987 138.684,243.515 134.048 C 242.883 132.055,242.184 132.000,217.599 132.000 C 203.703 132.000,192.033 132.300,191.667 132.667 M302.547 136.324 C 294.319 139.558,288.764 144.701,284.800 152.759 C 281.831 158.791,281.504 160.320,281.544 167.982 C 281.582 175.308,281.990 177.306,284.461 182.259 C 292.591 198.558,310.158 205.771,327.594 199.969 C 332.949 198.187,335.543 196.581,339.509 192.595 C 347.129 184.935,349.384 179.469,349.448 168.500 C 349.493 160.651,349.149 158.786,346.759 153.918 C 340.692 141.566,330.335 134.851,316.500 134.302 C 309.967 134.042,307.408 134.413,302.547 136.324 M327.719 145.858 C 329.799 146.919,332.357 148.735,333.405 149.894 C 335.552 152.268,334.966 152.608,331.932 150.750 C 330.070 149.609,329.072 150.341,320.517 159.115 L 311.142 168.730 307.368 164.865 C 302.937 160.327,301.820 160.159,298.225 163.492 L 295.538 165.984 302.492 172.992 C 306.317 176.846,310.200 180.000,311.120 180.000 C 312.041 180.000,315.653 176.738,319.147 172.750 C 329.414 161.034,336.309 154.894,337.619 156.300 C 339.479 158.296,341.000 164.020,341.000 169.023 C 341.000 178.543,336.657 185.948,328.500 190.334 C 322.743 193.431,308.268 193.434,302.500 190.340 C 294.095 185.832,290.044 178.404,290.044 167.500 C 290.044 159.029,292.143 153.837,297.454 149.174 C 305.565 142.053,317.666 140.727,327.719 145.858 M157.200 150.200 C 156.540 150.860,156.000 152.194,156.000 153.165 C 156.000 156.830,161.138 157.681,175.228 156.350 C 180.802 155.824,182.066 155.366,182.600 153.684 C 183.746 150.073,180.633 149.000,169.009 149.000 C 162.091 149.000,157.983 149.417,157.200 150.200 M194.000 149.895 C 192.201 150.395,191.500 151.279,191.500 153.045 C 191.500 155.358,191.904 155.536,198.500 156.126 C 202.350 156.470,213.438 156.807,223.139 156.876 C 238.810 156.986,241.029 156.797,243.022 155.183 C 244.933 153.636,245.093 153.042,244.098 151.183 C 242.946 149.031,242.604 149.001,219.715 149.100 C 206.947 149.155,195.375 149.512,194.000 149.895 M157.056 166.896 C 155.654 169.514,156.696 171.886,159.562 172.605 C 160.850 172.928,166.088 172.941,171.202 172.632 C 176.316 172.324,180.866 172.056,181.313 172.036 C 181.761 172.016,181.986 170.537,181.813 168.750 L 181.500 165.500 169.802 165.219 C 159.051 164.960,158.019 165.096,157.056 166.896 M191.485 168.048 C 190.003 172.717,191.522 173.000,218.087 173.000 C 240.799 173.000,243.011 172.849,243.874 171.236 C 244.512 170.044,244.406 168.909,243.549 167.736 C 242.402 166.168,239.853 166.000,217.207 166.000 C 192.817 166.000,192.117 166.056,191.485 168.048 M161.333 178.626 C 160.141 178.896,158.003 180.195,156.583 181.511 C 154.257 183.666,154.001 184.630,154.015 191.202 C 154.023 195.216,154.585 199.582,155.265 200.904 C 159.564 209.270,175.363 210.453,182.548 202.948 C 185.429 199.937,185.498 199.625,185.406 189.921 C 185.355 184.453,185.093 179.759,184.824 179.490 C 184.119 178.786,163.909 178.043,161.333 178.626 M420.759 185.250 C 424.846 194.023,424.852 194.000,418.567 194.000 C 415.505 194.000,412.990 193.662,412.977 193.250 C 412.956 192.575,418.304 181.008,418.640 181.002 C 418.717 181.001,419.671 182.912,420.759 185.250 M192.667 184.667 C 191.337 185.996,192.045 188.953,193.934 189.965 C 195.107 190.592,204.925 191.000,218.863 191.000 C 238.421 191.000,242.092 190.765,243.427 189.431 C 244.611 188.246,244.743 187.388,243.963 185.931 C 242.985 184.103,241.609 184.000,218.131 184.000 C 204.493 184.000,193.033 184.300,192.667 184.667 M177.682 186.546 C 177.874 187.121,175.564 189.722,172.549 192.325 L 167.067 197.058 164.417 193.054 C 160.791 187.575,161.604 186.186,168.699 185.732 C 176.405 185.238,177.273 185.317,177.682 186.546 M406.124 188.267 C 405.136 189.247,405.022 189.132,405.564 187.707 C 405.940 186.721,406.499 186.166,406.807 186.474 C 407.115 186.781,406.808 187.588,406.124 188.267 M424.779 216.250 L 424.500 229.500 419.000 229.500 L 413.500 229.500 413.221 216.250 L 412.942 203.000 419.000 203.000 L 425.058 203.000 424.779 216.250 M402.728 216.750 C 402.513 218.813,402.336 217.125,402.336 213.000 C 402.336 208.875,402.513 207.188,402.728 209.250 C 402.944 211.313,402.944 214.688,402.728 216.750 M402.732 235.250 C 402.522 237.588,402.349 235.675,402.349 231.000 C 402.349 226.325,402.522 224.412,402.732 226.750 C 402.943 229.088,402.943 232.912,402.732 235.250 M424.500 269.000 L 424.500 299.500 418.750 299.800 L 413.000 300.100 413.000 269.717 C 413.000 253.006,413.320 239.013,413.712 238.622 C 414.103 238.230,416.690 238.043,419.462 238.205 L 424.500 238.500 424.500 269.000 M404.732 259.250 C 404.522 261.587,404.349 259.675,404.349 255.000 C 404.349 250.325,404.522 248.412,404.732 250.750 C 404.943 253.088,404.943 256.913,404.732 259.250 M237.784 261.738 C 231.981 265.337,231.638 273.835,237.111 278.440 C 241.436 282.079,245.386 281.814,249.600 277.600 C 252.381 274.819,253.000 273.440,253.000 270.023 C 253.000 261.902,244.756 257.413,237.784 261.738 M244.896 268.914 C 245.663 269.400,246.015 270.519,245.677 271.399 C 244.884 273.466,241.396 273.473,240.604 271.410 C 239.458 268.423,241.888 267.010,244.896 268.914 M404.730 282.728 C 404.513 284.802,404.333 283.350,404.328 279.500 C 404.324 275.650,404.501 273.952,404.722 275.728 C 404.943 277.503,404.946 280.653,404.730 282.728 M387.000 283.378 C 387.000 283.585,386.212 284.373,385.250 285.128 C 383.664 286.371,383.629 286.336,384.872 284.750 C 386.179 283.084,387.000 282.555,387.000 283.378 M275.631 303.740 C 276.259 308.558,277.107 314.413,277.515 316.750 L 278.256 321.000 241.003 321.000 L 203.750 321.000 204.435 317.750 C 204.811 315.962,205.788 310.675,206.605 306.000 C 207.423 301.325,208.290 296.825,208.533 296.000 C 208.916 294.700,213.338 294.532,241.731 294.740 L 274.487 294.979 275.631 303.740 M197.683 306.188 C 197.364 306.985,197.127 306.748,197.079 305.583 C 197.036 304.529,197.272 303.939,197.604 304.271 C 197.936 304.603,197.972 305.466,197.683 306.188 M404.683 306.188 C 404.364 306.985,404.127 306.748,404.079 305.583 C 404.036 304.529,404.272 303.939,404.604 304.271 C 404.936 304.603,404.972 305.466,404.683 306.188 M424.000 307.680 C 424.000 309.501,419.629 321.000,418.936 321.000 C 418.499 321.000,417.408 318.637,416.511 315.750 C 415.614 312.863,414.655 309.966,414.378 309.314 C 414.056 308.552,415.239 307.987,417.688 307.732 C 419.785 307.514,422.063 307.261,422.750 307.168 C 423.438 307.076,424.000 307.306,424.000 307.680 M285.683 311.188 C 285.364 311.985,285.127 311.748,285.079 310.583 C 285.036 309.529,285.272 308.939,285.604 309.271 C 285.936 309.603,285.972 310.466,285.683 311.188 M195.683 317.188 C 195.364 317.985,195.127 317.748,195.079 316.583 C 195.036 315.529,195.272 314.939,195.604 315.271 C 195.936 315.603,195.972 316.466,195.683 317.188 M360.729 315.604 C 360.397 315.936,359.534 315.972,358.813 315.683 C 358.015 315.364,358.252 315.127,359.417 315.079 C 360.471 315.036,361.061 315.272,360.729 315.604 M191.280 320.731 C 188.959 320.940,184.909 320.943,182.280 320.736 C 179.651 320.530,181.550 320.358,186.500 320.355 C 191.450 320.352,193.601 320.521,191.280 320.731 M297.750 320.728 C 295.688 320.944,292.313 320.944,290.250 320.728 C 288.188 320.513,289.875 320.336,294.000 320.336 C 298.125 320.336,299.813 320.513,297.750 320.728 M174.000 322.378 C 174.000 322.585,173.213 323.373,172.250 324.128 C 170.664 325.371,170.629 325.336,171.872 323.750 C 173.179 322.084,174.000 321.555,174.000 322.378 M344.000 322.326 C 344.000 322.505,342.762 323.742,341.250 325.076 L 338.500 327.500 340.924 324.750 C 343.190 322.180,344.000 321.541,344.000 322.326 M366.947 324.639 C 370.492 325.348,380.303 333.752,382.464 337.930 C 383.214 339.382,384.142 342.241,384.526 344.285 L 385.223 348.000 375.361 348.004 C 369.938 348.006,359.762 348.301,352.750 348.658 L 340.000 349.309 340.022 345.904 C 340.034 344.032,340.866 340.700,341.871 338.500 C 344.099 333.623,351.857 326.294,355.691 325.446 C 357.236 325.105,358.950 324.675,359.500 324.491 C 361.199 323.925,363.614 323.973,366.947 324.639 M359.571 329.571 C 355.510 333.633,360.313 340.545,365.541 338.163 C 368.811 336.673,368.945 331.776,365.777 329.557 C 362.971 327.591,361.549 327.594,359.571 329.571 M299.443 331.223 C 300.299 332.445,301.000 334.181,301.000 335.081 C 301.000 336.537,298.172 336.784,275.250 337.330 C 261.087 337.667,236.900 337.764,221.500 337.545 C 206.100 337.327,189.563 337.115,184.750 337.074 C 176.750 337.006,176.000 336.832,176.000 335.039 C 176.000 333.960,176.985 332.160,178.189 331.039 C 180.340 329.035,181.385 329.000,239.132 329.000 L 297.887 329.000 299.443 331.223 M393.807 340.526 C 393.499 340.834,392.940 340.279,392.564 339.293 C 392.022 337.868,392.136 337.753,393.124 338.733 C 393.808 339.412,394.115 340.219,393.807 340.526 M316.000 343.373 C 316.000 345.281,313.822 347.000,311.405 347.000 C 309.419 347.000,309.285 346.672,309.989 343.550 C 310.417 341.653,310.513 339.847,310.204 339.537 C 309.894 339.227,311.072 339.688,312.820 340.560 C 314.569 341.433,316.000 342.699,316.000 343.373 M313.241 342.498 C 313.649 342.948,313.473 343.930,312.850 344.681 C 311.955 345.760,312.061 345.914,313.359 345.416 C 315.313 344.666,315.478 343.393,313.750 342.399 C 313.063 342.003,312.834 342.048,313.241 342.498 M213.750 346.689 C 212.787 346.941,211.213 346.941,210.250 346.689 C 209.287 346.438,210.075 346.232,212.000 346.232 C 213.925 346.232,214.713 346.438,213.750 346.689 M259.729 346.604 C 259.397 346.936,258.534 346.972,257.813 346.683 C 257.015 346.364,257.252 346.127,258.417 346.079 C 259.471 346.036,260.061 346.272,259.729 346.604 M265.250 346.662 C 264.563 346.940,263.438 346.940,262.750 346.662 C 262.063 346.385,262.625 346.158,264.000 346.158 C 265.375 346.158,265.938 346.385,265.250 346.662 M289.729 346.604 C 289.397 346.936,288.534 346.972,287.813 346.683 C 287.015 346.364,287.252 346.127,288.417 346.079 C 289.471 346.036,290.061 346.272,289.729 346.604 M330.732 361.250 C 330.522 363.587,330.349 361.675,330.349 357.000 C 330.349 352.325,330.522 350.413,330.732 352.750 C 330.943 355.087,330.943 358.913,330.732 361.250 M121.269 354.656 C 120.592 354.930,119.242 354.947,118.269 354.693 C 117.296 354.439,117.850 354.215,119.500 354.195 C 121.150 354.175,121.946 354.382,121.269 354.656 M126.729 354.604 C 126.397 354.936,125.534 354.972,124.813 354.683 C 124.015 354.364,124.252 354.127,125.417 354.079 C 126.471 354.036,127.061 354.272,126.729 354.604 M222.269 354.656 C 221.592 354.930,220.242 354.947,219.269 354.693 C 218.296 354.439,218.850 354.215,220.500 354.195 C 222.150 354.175,222.946 354.382,222.269 354.656 M227.250 354.662 C 226.563 354.940,225.438 354.940,224.750 354.662 C 224.063 354.385,224.625 354.158,226.000 354.158 C 227.375 354.158,227.938 354.385,227.250 354.662 M297.250 354.706 C 296.012 354.944,293.988 354.944,292.750 354.706 C 291.512 354.467,292.525 354.272,295.000 354.272 C 297.475 354.272,298.488 354.467,297.250 354.706 M303.128 357.750 C 304.371 359.336,304.336 359.371,302.750 358.128 C 301.788 357.373,301.000 356.585,301.000 356.378 C 301.000 355.555,301.821 356.084,303.128 357.750 M385.776 370.750 C 385.427 381.690,384.851 386.595,383.549 389.737 C 378.707 401.422,363.056 406.609,351.029 400.515 C 344.615 397.265,341.434 392.918,340.087 385.566 C 338.902 379.098,338.591 357.742,339.667 356.667 C 340.033 356.300,350.664 356.000,363.290 356.000 L 386.248 356.000 385.776 370.750 M303.159 378.500 C 306.866 386.750,309.922 394.512,309.950 395.750 L 310.000 398.000 206.167 398.000 C 149.058 398.000,102.078 397.745,101.767 397.434 C 100.628 396.295,112.189 370.571,116.039 365.677 L 118.154 362.989 207.286 363.245 L 296.419 363.500 303.159 378.500 M127.035 370.934 C 124.686 375.323,125.529 376.000,133.345 376.000 C 141.041 376.000,144.000 374.520,144.000 370.671 C 144.000 369.249,142.811 369.000,136.035 369.000 C 129.184 369.000,127.926 369.270,127.035 370.934 M160.958 371.078 C 158.715 375.269,160.205 376.000,170.993 376.000 C 180.887 376.000,181.065 375.958,182.032 373.416 C 182.572 371.995,182.760 370.420,182.448 369.916 C 182.137 369.412,177.424 369.000,171.976 369.000 C 162.970 369.000,161.969 369.189,160.958 371.078 M200.000 372.500 L 200.000 376.000 208.481 376.000 C 216.641 376.000,216.985 375.907,217.575 373.557 C 218.573 369.582,217.406 369.000,208.441 369.000 L 200.000 369.000 200.000 372.500 M235.187 372.250 L 235.500 375.500 243.000 375.500 L 250.500 375.500 250.813 372.250 L 251.127 369.000 243.000 369.000 L 234.873 369.000 235.187 372.250 M269.000 369.953 C 269.000 370.477,269.522 372.052,270.161 373.453 C 271.427 376.234,274.146 376.627,283.360 375.364 C 288.328 374.683,289.133 373.335,286.171 370.655 C 284.804 369.418,282.406 369.000,276.671 369.000 C 272.452 369.000,269.000 369.429,269.000 369.953 M330.725 382.232 C 330.502 384.029,330.315 382.800,330.310 379.500 C 330.304 376.200,330.486 374.729,330.715 376.232 C 330.943 377.735,330.947 380.435,330.725 382.232 M155.614 385.401 C 154.726 387.272,154.000 389.072,154.000 389.401 C 154.000 389.731,178.084 390.000,207.520 390.000 L 261.041 390.000 259.000 386.000 L 256.959 382.000 207.094 382.000 L 157.228 382.000 155.614 385.401 M121.245 384.250 C 120.695 384.938,119.934 386.512,119.555 387.750 C 118.878 389.960,119.016 390.000,127.272 390.000 C 135.310 390.000,135.730 389.888,136.839 387.453 C 137.478 386.052,138.000 384.477,138.000 383.953 C 138.000 382.485,122.436 382.761,121.245 384.250 M277.014 384.250 C 277.021 384.938,277.299 386.512,277.630 387.750 C 278.195 389.856,278.769 390.000,286.592 390.000 L 294.950 390.000 293.913 387.270 C 292.467 383.469,291.426 383.033,283.750 383.015 C 279.001 383.005,277.004 383.371,277.014 384.250 M311.673 407.500 C 311.493 408.050,309.851 409.512,308.025 410.750 L 304.704 413.000 205.500 413.000 L 106.296 413.000 102.975 410.750 C 101.149 409.512,99.507 408.050,99.327 407.500 C 99.110 406.838,134.949 406.500,205.500 406.500 C 276.051 406.500,311.890 406.838,311.673 407.500 M359.729 412.604 C 359.397 412.936,358.534 412.972,357.813 412.683 C 357.015 412.364,357.252 412.127,358.417 412.079 C 359.471 412.036,360.061 412.272,359.729 412.604 " stroke="none" fill="white" fill-rule="evenodd"/></svg>